HIERARCHY
ROOT root
{
	OFFSET	0	13.1	24.9
	CHANNELS 6  Xposition Yposition Zposition Xrotation Yrotation Zrotation
	JOINT spine_1
	{
		OFFSET	0	9.99999	0
		CHANNELS 3  Xrotation Yrotation Zrotation
		JOINT spine_2
		{
			OFFSET	0	112	-10
			CHANNELS 3  Xrotation Yrotation Zrotation
			JOINT spine_3
			{
				OFFSET	0	206.5	19.3
				CHANNELS 3  Xrotation Yrotation Zrotation
				JOINT spine_4
				{
					OFFSET	0	110.4	14.6
					CHANNELS 3  Xrotation Yrotation Zrotation
					JOINT neck_1
					{
						OFFSET	0	71.8	-50.3
						CHANNELS 3  Xrotation Yrotation Zrotation
						JOINT neck_2
						{
							OFFSET	0	86.2	-25.8
							CHANNELS 3  Xrotation Yrotation Zrotation
							JOINT head_ee
							{
								OFFSET	0	179.8	-8.7
								CHANNELS 3  Xrotation Yrotation Zrotation
								End Site
								{
									OFFSET	1	0	0
								}
							}
						}
					}
					JOINT left_clavicle
					{
						OFFSET	-43.2	22.4	-70.8
						CHANNELS 3  Xrotation Yrotation Zrotation
						JOINT left_shoulder
						{
							OFFSET	-93.9	-5.79999	48.7
							CHANNELS 3  Xrotation Yrotation Zrotation
							JOINT left_elbow
							{
								OFFSET	-291.4	-30.8	15.2
								CHANNELS 3  Xrotation Yrotation Zrotation
								JOINT left_lowarm_twist
								{
									OFFSET	-110.7	-3.89999	13.6
									CHANNELS 3  Xrotation Yrotation Zrotation
									JOINT left_hand
									{
										OFFSET	-110.7	-3.89999	13.6
										CHANNELS 3  Xrotation Yrotation Zrotation
										JOINT left_ee
										{
											OFFSET	-80.8	-5.10001	12.1
											CHANNELS 3  Xrotation Yrotation Zrotation
											End Site
											{
												OFFSET	1	0	0
											}
										}
									}
								}
							}
						}
					}
					JOINT right_clavicle
					{
						OFFSET	43.2	22.4	-70.8
						CHANNELS 3  Xrotation Yrotation Zrotation
						JOINT right_shoulder
						{
							OFFSET	93.9	-5.79999	48.7
							CHANNELS 3  Xrotation Yrotation Zrotation
							JOINT right_elbow
							{
								OFFSET	291.4	-30.8	15.2
								CHANNELS 3  Xrotation Yrotation Zrotation
								JOINT right_lowarm_twist
								{
									OFFSET	110.7	-3.89999	13.6
									CHANNELS 3  Xrotation Yrotation Zrotation
									JOINT right_hand
									{
										OFFSET	110.7	-3.89999	13.6
										CHANNELS 3  Xrotation Yrotation Zrotation
										JOINT right_ee
										{
											OFFSET	80.8	-5.10001	12.1
											CHANNELS 3  Xrotation Yrotation Zrotation
											End Site
											{
												OFFSET	1	0	0
											}
										}
									}
								}
							}
						}
					}
				}
			}
		}
	}
	JOINT left_hip
	{
		OFFSET	-82.8	-127.5	0.300001
		CHANNELS 3  Xrotation Yrotation Zrotation
		JOINT left_knee
		{
			OFFSET	-28.2	-396.7	2.2
			CHANNELS 3  Xrotation Yrotation Zrotation
			JOINT left_ankle
			{
				OFFSET	-11.7	-411.3	35.4
				CHANNELS 3  Xrotation Yrotation Zrotation
				JOINT left_toes
				{
					OFFSET	0	-60	-88.6
					CHANNELS 3  Xrotation Yrotation Zrotation
					JOINT left_foot_ee
					{
						OFFSET	-22.5	-16.5	-42.2
						CHANNELS 3  Xrotation Yrotation Zrotation
						End Site
						{
							OFFSET	1	0	0
						}
					}
				}
			}
		}
	}
	JOINT right_hip
	{
		OFFSET	82.8	-127.5	0.300001
		CHANNELS 3  Xrotation Yrotation Zrotation
		JOINT right_knee
		{
			OFFSET	28.2	-396.7	2.2
			CHANNELS 3  Xrotation Yrotation Zrotation
			JOINT right_ankle
			{
				OFFSET	11.7	-411.3	35.4
				CHANNELS 3  Xrotation Yrotation Zrotation
				JOINT right_toes
				{
					OFFSET	0	-60	-88.6
					CHANNELS 3  Xrotation Yrotation Zrotation
					JOINT right_foot_ee
					{
						OFFSET	22.5	-16.5	-42.2
						CHANNELS 3  Xrotation Yrotation Zrotation
						End Site
						{
							OFFSET	1	0	0
						}
					}
				}
			}
		}
	}
}
MOTION
Frames: 5
Frame Time: 0.02
2800.94 716.97 -1473.77 -12.1808708025 68.3356918341 1.90867836135 2.27601 0.591724 3.60464 2.28317 0.361308 3.63493 2.3054 -0.264509 3.64324 2.28702 0.313802 3.63933 -14.7031 13.3414 0.548344 -15.2721 25.1768 5.0585 -0.0 0.0 -0.0 0.792034 12.6965 2.81264 7.88686 -24.1679 50.1949 3.06406 -56.6101 1.65045 -26.2325 -1.61966 2.90721 -2.49731 10.1729 -11.8566 -0.0 0.0 -0.0 11.0036 19.6548 -21.6871 -39.9305 28.0422 -62.5039 0.60927 16.7947 -0.0899411 1.05361 -0.0359295 0.129766 1.4811 -14.582 -15.3787 0.0 0.0 0.0 -5.30952 -9.33762 20.0098 -6.21026 0.205425 0.930489 10.9194 21.1935 -1.5901 38.7992 -0.0 -0.0 -0.0 0.0 -0.0 39.9977 6.63629 4.38578 -3.10819 -0.115438 -0.462981 -24.8836 -28.2703 -3.97394 -39.988 0.0 0.0 0.0 0.0 0.0 
2693.26619372 697.882 -1500.25062593 -7.51375527354 73.9985935976 -2.50471804492 1.88233 0.550194 3.79806 1.8903 0.30758 3.82532 1.91087 -0.376467 3.81916 1.8906 0.230967 3.8307 -7.77039 10.9789 -3.48103 -7.7607 22.9358 -1.08245 -0.0 0.0 -0.0 -3.26008 20.9716 -2.26533 2.74156 -26.7488 57.0467 3.63799 -60.9588 2.14165 -19.9818 -1.11478 2.28602 -2.06881 8.57587 -9.84292 -0.0 0.0 -0.0 11.3851 19.6812 -22.5513 -38.1922 28.4973 -61.5326 0.897278 23.9641 -0.190433 1.2187 -0.0413425 0.150157 1.71252 -14.0863 -16.7207 0.0 0.0 0.0 -8.24111 -6.26013 19.0786 -20.1254 0.294127 3.05855 5.17982 29.6808 -0.803603 39.607 -0.0 -0.0 -0.0 0.0 -0.0 37.8044 5.65127 4.29528 -23.4251 -0.239267 -3.56184 -17.0351 -23.1367 -2.64041 -29.0503 0.0 0.0 0.0 0.0 0.0 
2693.78464092 697.882 -1502.27615952 -7.05245572215 72.9268977844 -2.98590141953 1.88233 0.550194 3.79806 1.8903 0.30758 3.82532 1.91087 -0.376467 3.81916 1.8906 0.230967 3.8307 -7.77039 10.9789 -3.48103 -7.7607 22.9358 -1.08245 -0.0 0.0 -0.0 -3.26008 20.9716 -2.26533 2.74156 -26.7488 57.0467 3.63799 -60.9588 2.14165 -19.9818 -1.11478 2.28602 -2.06881 8.57587 -9.84292 -0.0 0.0 -0.0 11.3851 19.6812 -22.5513 -38.1922 28.4973 -61.5326 0.897278 23.9641 -0.190433 1.2187 -0.0413425 0.150157 1.71252 -14.0863 -16.7207 0.0 0.0 0.0 -8.24111 -6.26013 19.0786 -20.1254 0.294127 3.05855 5.17982 29.6808 -0.803603 39.607 -0.0 -0.0 -0.0 0.0 -0.0 37.8044 5.65127 4.29528 -23.4251 -0.239267 -3.56184 -17.0351 -23.1367 -2.64041 -29.0503 0.0 0.0 0.0 0.0 0.0 
2694.284187 697.882 -1504.09176878 -6.68462949669 71.9608280674 -3.37168345358 1.88233 0.550194 3.79806 1.8903 0.30758 3.82532 1.91087 -0.376467 3.81916 1.8906 0.230967 3.8307 -7.77039 10.9789 -3.48103 -7.7607 22.9358 -1.08245 -0.0 0.0 -0.0 -3.26008 20.9716 -2.26533 2.74156 -26.7488 57.0467 3.63799 -60.9588 2.14165 -19.9818 -1.11478 2.28602 -2.06881 8.57587 -9.84292 -0.0 0.0 -0.0 11.3851 19.6812 -22.5513 -38.1922 28.4973 -61.5326 0.897278 23.9641 -0.190433 1.2187 -0.0413425 0.150157 1.71252 -14.0863 -16.7207 0.0 0.0 0.0 -8.24111 -6.26013 19.0786 -20.1254 0.294127 3.05855 5.17982 29.6808 -0.803603 39.607 -0.0 -0.0 -0.0 0.0 -0.0 37.8044 5.65127 4.29528 -23.4251 -0.239267 -3.56184 -17.0351 -23.1367 -2.64041 -29.0503 0.0 0.0 0.0 0.0 0.0 
2694.93610224 697.882 -1506.29761548 -6.28637515527 70.7798501718 -3.79193638721 1.88233 0.550194 3.79806 1.8903 0.30758 3.82532 1.91087 -0.376467 3.81916 1.8906 0.230967 3.8307 -7.77039 10.9789 -3.48103 -7.7607 22.9358 -1.08245 -0.0 0.0 -0.0 -3.26008 20.9716 -2.26533 2.74156 -26.7488 57.0467 3.63799 -60.9588 2.14165 -19.9818 -1.11478 2.28602 -2.06881 8.57587 -9.84292 -0.0 0.0 -0.0 11.3851 19.6812 -22.5513 -38.1922 28.4973 -61.5326 0.897278 23.9641 -0.190433 1.2187 -0.0413425 0.150157 1.71252 -14.0863 -16.7207 0.0 0.0 0.0 -8.24111 -6.26013 19.0786 -20.1254 0.294127 3.05855 5.17982 29.6808 -0.803603 39.607 -0.0 -0.0 -0.0 0.0 -0.0 37.8044 5.65127 4.29528 -23.4251 -0.239267 -3.56184 -17.0351 -23.1367 -2.64041 -29.0503 0.0 0.0 0.0 0.0 0.0 
